<svg data-name="Ebene 1" viewBox="0 0 380 380" xmlns="http://www.w3.org/2000/svg"><path d="M308.78 84.58c-2.78-6.18-7.88-10.19-15.12-11.94-13.06-3.14-32.45 1.41-54.78 12.15-4.88-3.91-5.33-11.74-5.82-28-.94 30.57-1.7 31.33-32.27 32.27 12.21.41 19.61.76 24.21 2.94a343.44 343.44 0 0 0-45.16 30.82c-28.68 22.9-55.8 50.9-76.35 78.83-20.92 28.42-33.21 54.4-34.6 73.15-1 12.69 3 21.77 11.49 26.26 4.16 2.21 9.29 3.31 15.28 3.31 8.76 0 19.35-2.34 31.41-7l2.7-1.09c3.78 4.23 4.21 12 4.66 26.84.94-30.57 1.7-31.33 32.27-32.27-9.82-.3-16.55-.59-21.21-1.85 16.58-8.55 34.59-20.4 53-35 36.15-28.58 67.7-62.42 88.84-95.27 20.56-31.83 28.36-58.88 21.45-74.15Zm-22.08 73.78c-21.08 32.78-52.57 66.54-88.66 95.08-18.85 14.9-37.11 26.81-53.69 35.27-8.76-2.9-9.3-10.16-9.91-30.08-.94 30.57-1.7 31.33-32.27 32.27 15 .46 22.81.89 27 4.8-12.78 5.19-24.16 7.92-33.5 7.92-5.81 0-10.83-1.05-14.9-3.22-8.17-4.34-12-13.16-11.08-25.5 1.39-18.6 13.62-44.43 34.45-72.74 20.51-27.87 47.58-55.81 76.21-78.68a344.43 344.43 0 0 1 45.48-31c6.19 3.55 6.68 11.26 7.23 28.9C234 90.8 234.75 90 265.32 89.1c-13.59-.42-21.28-.81-25.72-3.79 22-10.52 41-15 53.87-11.89 7 1.68 11.9 5.55 14.59 11.49 3.43 7.59 3.23 18-.61 30.94-3.75 12.63-10.73 26.93-20.75 42.51Z" style="fill-rule:evenodd"/></svg>