<svg data-name="Ebene 1" viewBox="0 0 380 380" xmlns="http://www.w3.org/2000/svg"><path d="m238.75 156.92-7.48-11.45a5.94 5.94 0 0 0-6.77-2.41l-13 4.13 11.04-7.19a5.93 5.93 0 0 0 2.22-7.28L202.44 76.4l26.39 54.35a5.93 5.93 0 0 0 7 2.88l12.61-4-11.44 7.48a5.94 5.94 0 0 0-2.41 6.77z"/><path d="m248.76 185.73-.76-13.66a5.92 5.92 0 0 0-4.65-5.47L230 163.66l13.21-.73a6 6 0 0 0 5.57-5.2l8.8-59.89-4.32 60.26a6 6 0 0 0 4.66 6l12.91 2.9-13.66.76a5.93 5.93 0 0 0-5.47 4.65Z"/><path d="m243 215.68 6.18-12.2a6 6 0 0 0-1.3-7.07l-10.09-9.23 11.8 6a6 6 0 0 0 7.42-1.72L294.6 144l-33.87 50a5.93 5.93 0 0 0 1 7.54l9.77 8.92-12.2-6.17a6 6 0 0 0-7.07 1.29Z"/><path d="m223.08 238.75 11.45-7.48a5.94 5.94 0 0 0 2.41-6.77l-4.13-13 7.24 11.08a5.93 5.93 0 0 0 7.28 2.22l56.27-22.32-54.35 26.39a5.93 5.93 0 0 0-2.88 7l4 12.61-7.48-11.48a5.94 5.94 0 0 0-6.77-2.41z"/><path d="m194.27 248.76 13.66-.76a5.92 5.92 0 0 0 5.47-4.65l2.94-13.35.73 13.21a6 6 0 0 0 5.2 5.57l59.89 8.8-60.26-4.32a6 6 0 0 0-6 4.66l-2.9 12.91-.76-13.66a5.93 5.93 0 0 0-4.65-5.47Z"/><path d="m164.32 243 12.2 6.18a6 6 0 0 0 7.07-1.3l9.23-10.09-6 11.8a6 6 0 0 0 1.72 7.42L236 294.6l-50-33.87a5.93 5.93 0 0 0-7.54 1l-8.92 9.77 6.17-12.2a6 6 0 0 0-1.29-7.07Z"/><path d="m141.25 223.08 7.48 11.45a5.94 5.94 0 0 0 6.77 2.41l13-4.13-11.08 7.24a5.93 5.93 0 0 0-2.22 7.28l22.32 56.27-26.39-54.35a5.93 5.93 0 0 0-7-2.88l-12.61 4 11.48-7.48a5.94 5.94 0 0 0 2.41-6.77z"/><path d="m131.24 194.27.76 13.66a5.92 5.92 0 0 0 4.65 5.47l13.35 2.94-13.21.73a6 6 0 0 0-5.57 5.2l-8.8 59.89 4.32-60.26a6 6 0 0 0-4.66-6l-12.91-2.9 13.66-.76a5.93 5.93 0 0 0 5.47-4.65Z"/><path d="m137 164.32-6.18 12.2a6 6 0 0 0 1.3 7.07l10.09 9.23-11.8-6a6 6 0 0 0-7.42 1.72L85.4 236l33.87-50a5.93 5.93 0 0 0-1-7.54l-9.77-8.92 12.2 6.17a6 6 0 0 0 7.07-1.29Z"/><path d="m156.92 141.25-11.45 7.48a5.94 5.94 0 0 0-2.41 6.77l4.13 13-7.19-11.04a5.93 5.93 0 0 0-7.28-2.22L76.4 177.56l54.35-26.39a5.93 5.93 0 0 0 2.88-7l-4-12.61 7.48 11.44a5.94 5.94 0 0 0 6.77 2.41z"/><path d="m185.73 131.24-13.66.76a5.92 5.92 0 0 0-5.47 4.65L163.66 150l-.73-13.21a6 6 0 0 0-5.2-5.57l-59.89-8.8 60.26 4.32a6 6 0 0 0 6-4.66l2.9-12.91.76 13.66a5.93 5.93 0 0 0 4.65 5.47Z"/><path d="m215.68 137-12.2-6.18a6 6 0 0 0-7.07 1.3l-9.23 10.09 6-11.8a6 6 0 0 0-1.72-7.42L144 85.4l50 33.87a5.93 5.93 0 0 0 7.54-1l8.92-9.77-6.17 12.2a6 6 0 0 0 1.29 7.07Z"/></svg>