<svg data-name="Ebene 1" viewBox="0 0 380 380" xmlns="http://www.w3.org/2000/svg"><path d="M307.9 189.27H271a82.69 82.69 0 0 0-82-81.56V72.1h-1.4v35.61a82.69 82.69 0 0 0-82 81.56H72.1v1.46h33.52a82.7 82.7 0 0 0 82 82.4v34.77h1.47v-34.77a82.7 82.7 0 0 0 82-82.4h36.81zm-51.29 0h-16.92l-38.47-5.56a7.77 7.77 0 0 1-6.59-6.59l-5.56-38.47V109.4c37.05.46 67.02 35.93 67.54 79.87zm-69-79.87v29.25L182 177.12a7.77 7.77 0 0 1-6.59 6.59L137 189.27h-16.94c.52-43.94 30.49-79.41 67.54-79.87zm-67.55 81.33H137l38.47 5.56a7.77 7.77 0 0 1 6.59 6.59l5.56 38.47v30.09c-37.31-.44-67.43-36.39-67.57-80.71zm69 80.71v-30.09l5.56-38.47a7.77 7.77 0 0 1 6.59-6.59l38.47-5.56h16.93c-.13 44.32-30.25 80.27-67.54 80.71z"/></svg>